# xmcd
#
# Track frame offsets: 
#        150
#        11379
#        28677
#        41955
#        57270
#        73026
#        88730
#        103597
#        120033
#        135120
#
# Disc length: 1952 seconds
#
# Revision: 0
# Processed by: cddbd v1.4PL0 Copyright (c) Steve Scherf et al.
# Submitted via: ExactAudioCopy v0.90a11
#
DISCID=77079e0a
DTITLE=Mark Chesnutt - Doing My Country Thing
DYEAR=1900
DGENRE=Country
TTITLE0=Welcome Fool
TTITLE1=The Price Of Getting High
TTITLE2=Heartache County
TTITLE3=Since I Drank My Way To Houston
TTITLE4=Rodeo Cowboys
TTITLE5=Country Girl
TTITLE6=Running Out Of Ways To Say I Love You
TTITLE7=Lets Make A Memory One More Time
TTITLE8=Full Blooded Texan
TTITLE9=Heaven On My Mind
EXTD=
EXTT0=
EXTT1=
EXTT2=
EXTT3=
EXTT4=
EXTT5=
EXTT6=
EXTT7=
EXTT8=
EXTT9=
PLAYORDER=
